<svg xmlns="http://www.w3.org/2000/svg" width="16.585" height="16.585" viewBox="0 0 16.585 16.585"><path d="M3769.6,755.647a2.44,2.44,0,1,1-2.3,1.626h-3.528a3.505,3.505,0,1,1-3.927-4.878v-6.5h-1.626a.813.813,0,0,1,0-1.626h2.439a.813.813,0,0,1,.813.813v.813h11.381a.812.812,0,0,1,.732,1.178l-3.252,6.5a.812.812,0,0,1-.732.447h-9.755a.813.813,0,0,0,0,1.626Zm-8.129-3.252h7.625l2.439-4.878h-10.064Zm0,6.5a.813.813,0,1,0-.813-.813A.813.813,0,0,0,3761.474,758.9Zm8.129,0a.813.813,0,1,0-.812-.813A.813.813,0,0,0,3769.6,758.9Z" transform="translate(-3757.214 -744.141)" fill="#fff" stroke="#fff" stroke-miterlimit="10" stroke-width="0.25"/></svg>