<svg xmlns="http://www.w3.org/2000/svg" width="22.485" height="22.968" viewBox="0 0 22.485 22.968"><g transform="translate(-770.158 -654.863)"><path d="M777.857,655.479a11.831,11.831,0,0,0-6.495,5.674,9.556,9.556,0,0,0-.971,2.912,11.482,11.482,0,0,0,.971,7.391,11,11,0,0,0,3.135,3.808,10.51,10.51,0,0,0,4.181,2.09,11.839,11.839,0,0,0,5.824.075,10.205,10.205,0,0,0,7.615-7.242,12.747,12.747,0,0,0,.3-6.047H781.665v4.479h6.2a5.207,5.207,0,0,1-2.314,3.509,6.21,6.21,0,0,1-2.538.971,8.6,8.6,0,0,1-2.763,0,6.459,6.459,0,0,1-2.538-1.12,6.855,6.855,0,0,1-2.613-3.509,6.592,6.592,0,0,1,0-4.48,7.665,7.665,0,0,1,1.642-2.687,6.018,6.018,0,0,1,3.434-1.867,6.433,6.433,0,0,1,3.36.149A7.35,7.35,0,0,1,785.995,661l2.09-2.091,1.12-1.119a11.7,11.7,0,0,0-3.658-2.315A12.313,12.313,0,0,0,777.857,655.479Z" fill="#fff"/><path d="M777.857,655.479a11.8,11.8,0,0,1,7.69.075,10.49,10.49,0,0,1,3.658,2.314l-1.12,1.12-2.09,2.091a5.483,5.483,0,0,0-2.464-1.419,7.269,7.269,0,0,0-3.36-.149,7.75,7.75,0,0,0-3.434,1.866,6.709,6.709,0,0,0-1.642,2.688c-1.27-.971-2.464-1.941-3.733-2.912A11.831,11.831,0,0,1,777.857,655.479Z" fill="#ea4335"/><path d="M770.391,664.065a14.816,14.816,0,0,1,.971-2.912c1.269.971,2.463,1.941,3.733,2.912a6.592,6.592,0,0,0,0,4.48c-1.27.97-2.464,1.941-3.733,2.911A11.545,11.545,0,0,1,770.391,664.065Z" fill="#fbbc05"/><path d="M781.59,664.14h10.751a12.734,12.734,0,0,1-.3,6.047,10.638,10.638,0,0,1-2.911,4.778c-1.2-.97-2.389-1.866-3.659-2.837a5.67,5.67,0,0,0,2.315-3.509h-6.2Z" fill="#4285f4"/><path d="M771.362,671.456c1.269-.97,2.463-1.941,3.733-2.911a6.86,6.86,0,0,0,2.613,3.509,7.759,7.759,0,0,0,2.538,1.119,8.534,8.534,0,0,0,2.763,0,7.471,7.471,0,0,0,2.538-.97c1.2.97,2.389,1.866,3.658,2.837a10.968,10.968,0,0,1-4.7,2.464,11.817,11.817,0,0,1-5.824-.075,11.61,11.61,0,0,1-4.181-2.09A14.067,14.067,0,0,1,771.362,671.456Z" fill="#34a853"/></g></svg>