<svg xmlns="http://www.w3.org/2000/svg" xmlns:xlink="http://www.w3.org/1999/xlink" width="17.298" height="17.296" viewBox="0 0 17.298 17.296"><defs><clipPath id="a"><rect width="17.298" height="17.296" fill="none"/></clipPath></defs><g clip-path="url(#a)"><g transform="translate(-3535.458 -743.748)"><path d="M3545.019,759.313v-4.325h-1.729v4.325a1.731,1.731,0,0,1-1.73,1.73h-2.595a1.731,1.731,0,0,1-1.73-1.73v-6.565l-.259.26a.865.865,0,0,1-1.306-1.135.852.852,0,0,1,.095-.094l7.784-7.784a.864.864,0,0,1,1.211,0l7.784,7.784a.865.865,0,0,1-1.211,1.229l-.259-.26v6.565a1.731,1.731,0,0,1-1.73,1.73h-2.595A1.731,1.731,0,0,1,3545.019,759.313Zm4.325,0v-8.295l-5.19-5.189-5.189,5.189v8.295h2.595v-4.325a1.735,1.735,0,0,1,1.73-1.73h1.729a1.73,1.73,0,0,1,1.73,1.73v4.325Z" fill="#fff"/></g></g></svg>