<svg xmlns="http://www.w3.org/2000/svg" width="103.667" height="81.431" viewBox="0 0 103.667 81.431"><g transform="translate(-135.667 -365.284)"><path d="M234.665,407.829c-11.384-.831-21.79-1.584-32.194-2.352-10.772-.795-21.539-1.648-32.314-2.388-4.865-.334-6.6-2.533-5.427-7.245a37.861,37.861,0,0,1,31.993-28.112c.925-.106,1.559-.208,1.838-1.278.247-.948,1.174-1.214,2.084-1.164,2.144.118,4.284.3,6.427.438.863.057,1.791.414,1.886,1.194.185,1.512,1.263,1.571,2.288,1.84a37.956,37.956,0,0,1,27.96,33.716C239.44,405.776,237.2,407.934,234.665,407.829Z" fill="#fff"/><path d="M201.666,440.342c-3.829-.252-7.44-.457-11.043-.748-1.036-.084-1.51.05-1.6,1.261a5.1,5.1,0,0,1-2.561,4.039,2.893,2.893,0,0,1-3.286.265,2.961,2.961,0,0,1-1.249-3.4c.193-.819.528-1.6.813-2.449a8.532,8.532,0,0,0-3.223-.481,3.036,3.036,0,0,1-3.176-3.082,2.952,2.952,0,0,1,3.255-2.784c6.485.379,12.964.847,19.446,1.267,1.714.111,3.43.237,5.145.234a2.753,2.753,0,0,0,2.729-2.667,2.9,2.9,0,0,0-2.566-2.881c-6.06-.413-12.124-.78-18.187-1.166-3.851-.246-7.705-.463-11.553-.758-2.324-.179-3.416-1.358-3.268-3.329.143-1.9,1.3-2.762,3.654-2.637,5.025.267,10.047.59,15.072.838a2.723,2.723,0,0,0,3.167-2.533c.1-1.715-.97-2.889-2.935-3.026-8.507-.6-17.017-1.143-25.524-1.734-2.508-.174-3.811-1.479-3.714-3.594s1.493-3.274,4.1-3.119c9.308.556,18.612,1.183,27.917,1.777q15.778,1.008,31.558,2.011c3.913.252,7.824.536,11.735.816,1.118.08,2.355.18,2.815,1.36.468,1.205-.251,2.2-1.034,3.139-3.763,4.525-7.677,8.917-11.561,13.337-4.356,4.957-10.009,7.29-16.142,8.875a4.668,4.668,0,0,1-1.078.213c-1.4.021-1.886.594-1.673,2.06.26,1.791-.728,3.184-2.016,4.322a3.187,3.187,0,0,1-3.9.491c-1.484-.811-1.335-2.231-1.094-3.561A12.56,12.56,0,0,1,201.666,440.342Z" fill="#fff"/><path d="M154.279,419.6c2.81.174,5.622.321,8.429.532a2.886,2.886,0,0,1,2.88,3.125,2.6,2.6,0,0,1-3,2.717c-3.607-.123-7.212-.343-10.813-.592a3.021,3.021,0,0,1-3.063-2.425,2.715,2.715,0,0,1,2.447-3.384c1.033-.084,2.079-.015,3.119-.015Z" fill="#fff"/><path d="M166.7,438.009c-1.405-.09-2.811-.173-4.215-.272a3.146,3.146,0,0,1-3.136-3.142,2.935,2.935,0,0,1,3.245-2.744c1.9.058,3.789.218,5.682.358a2.81,2.81,0,0,1,2.835,3.1,2.75,2.75,0,0,1-2.945,2.765c-.489.01-.978,0-1.468,0Z" fill="#fff"/><path d="M150.795,412.812c-1.215-.111-2.444-.142-3.641-.353a2.765,2.765,0,0,1-2.508-3.041,2.727,2.727,0,0,1,3.026-2.69c2.074.061,4.152.167,6.212.4a2.9,2.9,0,0,1,.019,5.737,21.713,21.713,0,0,1-3.1.028Z" fill="#fff"/><path d="M139.858,424.519c-3.212-.179-4.424-1.19-4.155-3.478a2.343,2.343,0,0,1,.209-.887c1.272-2.193,3.361-1.567,5.254-1.421a2.911,2.911,0,0,1,2.875,2.8C144.275,423.551,142.675,424.677,139.858,424.519Z" fill="#fff"/><path d="M150.133,431.034c2,.043,3.262,1.169,3.275,2.929a2.931,2.931,0,0,1-3.234,2.967c-2.021-.02-3.483-1.34-3.395-3.064C146.874,432,148.075,430.99,150.133,431.034Z" fill="#fff"/><path d="M169.992,394.919c3.655-11.239,15.194-20.456,22.9-21.7C183.075,378.336,175.929,385.655,169.992,394.919Z" fill="#4e49ff"/></g></svg>