<svg xmlns="http://www.w3.org/2000/svg" width="16.481" height="18.312" viewBox="0 0 16.481 18.312"><path d="M3838.156,752.4a4.578,4.578,0,1,1,4.578-4.578A4.577,4.577,0,0,1,3838.156,752.4Zm0-1.831a2.747,2.747,0,1,0-2.747-2.747A2.747,2.747,0,0,0,3838.156,750.564Zm8.24,10.072a.916.916,0,0,1-1.831,0V758.8a2.747,2.747,0,0,0-2.747-2.747h-7.325a2.747,2.747,0,0,0-2.747,2.747v1.831a.916.916,0,0,1-1.831,0V758.8a4.579,4.579,0,0,1,4.578-4.579h7.325a4.578,4.578,0,0,1,4.578,4.579Z" transform="translate(-3829.915 -743.239)" fill="#fff"/></svg>